<svg width="131" height="31" viewBox="0 0 131 31" fill="none" xmlns="http://www.w3.org/2000/svg">
<path d="M0.832886 0.49855H22.7841V6.21142H7.18978V12.123H20.8968V17.7862H7.18978V23.8965H22.9827V29.6093H0.832886V0.49855Z" fill="currentColor"/>
<path d="M28.6932 0.49855H40.5627C47.5156 0.49855 51.6873 4.62175 51.6873 10.583V10.6824C51.6873 17.4384 46.423 20.9158 39.9171 20.9158H35.0501V29.659H28.6436V0.49855H28.6932ZM40.1654 15.1533C43.3439 15.1533 45.2311 13.2159 45.2311 10.732V10.6327C45.2311 7.75141 43.2446 6.21142 40.0164 6.21142H35.0501V15.1036H40.1654V15.1533Z" fill="currentColor"/>
<path d="M64.846 15.9454H55.8073V13.9584H64.846V5.01646H66.9318V13.9584H75.9705V15.9454H66.9318V24.8873H64.846V15.9454Z" fill="currentColor"/>
<path d="M79.9465 15.1515V15.0522C79.9465 6.75609 86.2041 0 95.1435 0C100.656 0 103.934 1.83805 106.616 4.47094L102.543 9.19027C100.308 7.15351 98.024 5.91159 95.0938 5.91159C90.1772 5.91159 86.6511 9.98511 86.6511 15.0025V15.1019C86.6511 20.0696 90.0778 24.2425 95.0938 24.2425C98.4213 24.2425 100.457 22.9012 102.742 20.8147L106.814 24.9379C103.835 28.1173 100.507 30.154 94.8952 30.154C86.3034 30.1044 79.9465 23.4973 79.9465 15.1515Z" fill="currentColor"/>
<path d="M110.54 10.3347V10.285C110.54 4.91989 114.86 0.597977 120.621 0.597977C126.382 0.597977 130.653 4.87021 130.653 10.2353V10.285C130.653 15.6501 126.332 19.9721 120.572 19.9721C114.811 20.0217 110.54 15.6998 110.54 10.3347ZM125.339 10.3347V10.285C125.339 7.55277 123.402 5.26763 120.572 5.26763C117.741 5.26763 115.804 7.55278 115.804 10.2353V10.285C115.804 12.9676 117.741 15.3024 120.621 15.3024C123.452 15.3521 125.339 13.0669 125.339 10.3347Z" fill="currentColor"/>
<path d="M126.836 23.2493H113.475V27.0667H126.836V23.2493Z" fill="currentColor"/>
</svg>
