<svg xmlns="http://www.w3.org/2000/svg" fill="none" viewBox="0 0 184 36">
  <g clip-path="url(#a)">
    <g clip-path="url(#b)">
      <path fill="currentColor" d="M55.524 12.024h3.39v19.338h-3.39V22.97h-9.668v8.393h-3.365V12.024h3.362v8.092h9.667l.004-8.092Zm17.877 12.658h-9.2c.07 1.466.424 2.547 1.061 3.244.637.697 1.595 1.045 2.874 1.045a6.517 6.517 0 0 0 4.08-1.452l.952 2.337a7.503 7.503 0 0 1-2.343 1.263 8.711 8.711 0 0 1-2.83.476c-2.188 0-3.909-.634-5.164-1.902-1.255-1.268-1.881-3.006-1.879-5.215a8.153 8.153 0 0 1 .821-3.723 6.154 6.154 0 0 1 2.304-2.54 6.297 6.297 0 0 1 3.362-.907c1.835 0 3.288.605 4.36 1.814 1.07 1.21 1.603 2.889 1.599 5.037l.003.523Zm-8.036-4.144a3.977 3.977 0 0 0-1.062 2.322h6.214a3.849 3.849 0 0 0-.916-2.337 2.778 2.778 0 0 0-.96-.614 2.725 2.725 0 0 0-1.118-.173 2.985 2.985 0 0 0-2.158.802Zm23.107-2.893v13.717h-3.256v-2.199a4.374 4.374 0 0 1-1.748 1.778c-.8.435-1.693.655-2.597.639a5.601 5.601 0 0 1-3.1-.871 5.69 5.69 0 0 1-2.091-2.471 8.75 8.75 0 0 1-.744-3.72 8.929 8.929 0 0 1 .758-3.752 6.023 6.023 0 0 1 2.105-2.54 5.372 5.372 0 0 1 3.072-.907 5.201 5.201 0 0 1 2.597.638 4.351 4.351 0 0 1 1.748 1.778v-2.09h3.256Zm-4.158 10.103c.601-.777.902-1.872.902-3.284 0-1.413-.3-2.525-.902-3.335a3.102 3.102 0 0 0-1.148-.9 3.026 3.026 0 0 0-1.421-.269 2.984 2.984 0 0 0-1.422.284c-.444.21-.833.528-1.133.925-.609.805-.913 1.927-.913 3.356 0 1.43.304 2.497.913 3.266.315.382.713.684 1.16.881.45.198.936.287 1.423.259.485.024.968-.07 1.41-.276.442-.206.83-.517 1.13-.907Zm7.23 3.614v-19.99h3.284v19.99h-3.284ZM102.139 20.2v6.136c0 1.611.732 2.417 2.197 2.417.45-.007.897-.08 1.327-.218v2.69a6.088 6.088 0 0 1-2.123.326c-1.517 0-2.682-.434-3.496-1.303-.814-.869-1.22-2.118-1.218-3.748v-6.3H96.28v-2.54h2.569v-3.342l3.308-1.14v4.467h3.539v2.54l-3.556.015Zm18.277 2.743v8.42h-3.313v-8.26c0-1.086-.203-1.878-.608-2.377-.406-.498-1.032-.74-1.879-.726a3.15 3.15 0 0 0-1.322.23c-.42.17-.8.43-1.116.761-.316.353-.56.766-.719 1.215-.159.45-.23.927-.208 1.405v7.751h-3.295v-19.99h3.284v8.255a4.784 4.784 0 0 1 1.826-1.724 5.307 5.307 0 0 1 2.544-.61c3.204 0 4.806 1.884 4.806 5.65Zm13.148-4.743a6.075 6.075 0 0 1 2.092 2.54 8.937 8.937 0 0 1 .757 3.764 8.748 8.748 0 0 1-.743 3.72 5.587 5.587 0 0 1-2.088 2.476 5.386 5.386 0 0 1-3.078.865 5.219 5.219 0 0 1-2.594-.638 4.347 4.347 0 0 1-1.748-1.778v8.066h-3.284V21.528a32.08 32.08 0 0 0-.212-3.883h3.099l.262 2.363a4.129 4.129 0 0 1 1.724-1.996 5.231 5.231 0 0 1 2.753-.726 5.31 5.31 0 0 1 3.06.915Zm-1.39 9.577c.601-.762.899-1.847.899-3.266s-.298-2.54-.899-3.357a3.033 3.033 0 0 0-1.127-.926 2.95 2.95 0 0 0-1.417-.282 3.043 3.043 0 0 0-1.434.264 3.12 3.12 0 0 0-1.16.904c-.602.78-.903 1.893-.903 3.343 0 1.449.301 2.548.903 3.298.328.362.726.65 1.168.848a3.436 3.436 0 0 0 2.802 0 3.517 3.517 0 0 0 1.168-.848v.022Zm5.86-16.352h3.68v3.343h-3.68v-3.343Zm.212 19.937V17.645h3.284v13.717h-3.284Zm6.377 0v-19.99h3.284v19.99h-3.284Zm8.33-.653a5.845 5.845 0 0 1-2.385-2.486 8.992 8.992 0 0 1 0-7.577 5.867 5.867 0 0 1 2.385-2.486 7.223 7.223 0 0 1 3.588-.867 7.112 7.112 0 0 1 3.538.867 5.92 5.92 0 0 1 2.371 2.486 9.023 9.023 0 0 1 .832 3.789c0 1.31-.284 2.604-.832 3.788a5.897 5.897 0 0 1-2.371 2.486 7.076 7.076 0 0 1-3.538.87 7.19 7.19 0 0 1-3.588-.87Zm6.143-2.903c.591-.751.888-1.873.888-3.357 0-1.484-.301-2.583-.902-3.353a3.474 3.474 0 0 0-1.16-.852 3.388 3.388 0 0 0-2.791 0 3.46 3.46 0 0 0-1.159.852c-.602.77-.903 1.887-.903 3.353 0 1.484.298 2.606.889 3.357.31.379.703.678 1.147.873.443.196.926.282 1.407.252 1.128-.01 1.989-.39 2.584-1.14v.015Zm10.662-7.606v6.136c0 1.612.732 2.417 2.197 2.417.449-.007.895-.08 1.323-.218v2.69a6.057 6.057 0 0 1-2.123.326c-1.517 0-2.682-.434-3.496-1.303-.814-.868-1.22-2.118-1.217-3.748v-6.3h-2.576v-2.54h2.569v-3.342l3.312-1.14v4.467h3.539v2.54l-3.528.015Z"/>
      <path fill="currentColor" d="M8.765 4.11c0-.861-.25-1.703-.716-2.42A4.271 4.271 0 0 0 6.143.088 4.148 4.148 0 0 0 3.69-.161 4.215 4.215 0 0 0 1.516 1.03 4.39 4.39 0 0 0 .354 3.26c-.164.844-.08 1.72.241 2.515A4.333 4.333 0 0 0 2.16 7.731c.698.478 1.52.733 2.36.733a4.193 4.193 0 0 0 3-1.274 4.412 4.412 0 0 0 1.244-3.08ZM4.518 6.403c-.442 0-.874-.134-1.242-.386a2.282 2.282 0 0 1-.824-1.03 2.343 2.343 0 0 1 .485-2.499 2.22 2.22 0 0 1 1.145-.628 2.185 2.185 0 0 1 1.292.131 2.25 2.25 0 0 1 1.004.845 2.335 2.335 0 0 1-.273 2.89 2.21 2.21 0 0 1-1.573.677h-.014Z"/>
      <path fill="currentColor" d="M18.319 17.043c0-.582.111-1.158.329-1.695a4.426 4.426 0 0 1 .938-1.437 4.315 4.315 0 0 0-1.406-.97 4.225 4.225 0 0 0-1.662-.34h-2.442v2.595h2.442c.477 0 .936.194 1.273.54.338.347.528.817.528 1.307Z"/>
      <path fill="currentColor" d="M19.586 27.78a4.43 4.43 0 0 1-.938-1.436 4.524 4.524 0 0 1-.329-1.695c-.001.49-.191.959-.529 1.305a1.782 1.782 0 0 1-1.272.542h-2.442v2.59h2.442c.57 0 1.134-.114 1.66-.339a4.326 4.326 0 0 0 1.408-.966ZM9.104 26.496a1.786 1.786 0 0 1-1.273-.542A1.878 1.878 0 0 1 7.3 24.65v-9.435h4.246v-2.613H4.773V24.65a4.503 4.503 0 0 0 1.271 3.137 4.28 4.28 0 0 0 3.06 1.3h2.442v-2.59H9.104Z"/>
      <path fill="currentColor" d="M20.849 24.649a4.5 4.5 0 0 1-1.264 3.131c.402.415.88.743 1.405.968.526.224 1.09.34 1.66.339h2.445v-2.591H22.65a1.783 1.783 0 0 1-1.273-.542 1.875 1.875 0 0 1-.528-1.305Zm13.546-7.606a4.503 4.503 0 0 0-1.269-3.138 4.28 4.28 0 0 0-3.06-1.304H27.63v2.595h2.445c.477 0 .935.196 1.272.542.338.346.528.815.529 1.305v9.435H27.63v2.59h6.773l-.008-12.025Zm-14.81-3.132c.401.412.719.9.936 1.437.216.537.328 1.113.328 1.695 0-.49.19-.96.527-1.306a1.779 1.779 0 0 1 1.274-.541h2.445V12.6H22.65a4.21 4.21 0 0 0-1.66.34 4.298 4.298 0 0 0-1.405.97Z"/>
      <path fill="currentColor" d="M20.849 17.043c0-.582-.111-1.157-.328-1.695a4.437 4.437 0 0 0-.935-1.437c-.402.41-.721.899-.938 1.437a4.514 4.514 0 0 0-.33 1.695v2.504h2.531v-2.504Zm-2.53 7.606c0 .582.112 1.158.33 1.695.217.537.535 1.025.937 1.436a4.5 4.5 0 0 0 1.263-3.131V22.14h-2.53v2.508Z"/>
      <path fill="currentColor" d="M26.348 20.842a4.26 4.26 0 0 1-3.033 1.3 1.78 1.78 0 0 1 1.253.552c.331.345.517.81.516 1.294v2.508h2.545v-2.508a4.542 4.542 0 0 0-.335-1.704 4.453 4.453 0 0 0-.946-1.442Z"/>
      <path fill="currentColor" d="M25.095 33.441h-9.2a1.782 1.782 0 0 1-1.274-.543 1.875 1.875 0 0 1-.527-1.307v-2.504h-2.53v2.504a4.504 4.504 0 0 0 1.27 3.14 4.281 4.281 0 0 0 3.061 1.301h11.734v-6.945h-2.527l-.007 4.354Z"/>
      <path fill="currentColor" d="M15.852 22.141a4.26 4.26 0 0 1-3.032-1.299 4.45 4.45 0 0 0-.943 1.443 4.54 4.54 0 0 0-.331 1.703v2.508h2.53v-2.508c0-.485.186-.951.519-1.297a1.78 1.78 0 0 1 1.257-.55Z"/>
      <path fill="currentColor" d="M14.076 26.496h-2.527v2.59h2.527v-2.59Zm13.546 0h-2.526v2.59h2.526v-2.59Z"/>
      <path fill="currentColor" d="M12.82 20.842a4.27 4.27 0 0 1 3.033-1.295 1.78 1.78 0 0 1-1.253-.553 1.872 1.872 0 0 1-.516-1.294v-2.504h-2.53V17.7c-.002.583.11 1.161.327 1.7.217.54.537 1.03.94 1.442ZM25.095 17.7c0 .484-.185.949-.516 1.294a1.78 1.78 0 0 1-1.253.553 4.27 4.27 0 0 1 3.032 1.295c.404-.412.725-.901.944-1.44.218-.54.33-1.118.33-1.702v-2.504h-2.526l-.011 2.504Zm-11.019-7.603c0-.49.19-.96.527-1.307a1.782 1.782 0 0 1 1.274-.543h9.2V12.6h2.552V5.656H15.877a4.281 4.281 0 0 0-3.062 1.302 4.503 4.503 0 0 0-1.27 3.14V12.6h2.531v-2.504Z"/>
      <path fill="currentColor" d="M14.076 12.605h-2.527v2.59h2.527v-2.59Zm13.546 0h-2.526v2.59h2.526v-2.59Z"/>
      <path fill="currentColor" d="M20.849 19.547v2.594h2.477a4.26 4.26 0 0 0 3.032-1.299 4.271 4.271 0 0 0-3.032-1.295h-2.477Zm-2.53 2.594v-2.594h-2.477a4.27 4.27 0 0 0-3.033 1.295 4.26 4.26 0 0 0 3.033 1.3h2.477Z"/>
      <path fill="currentColor" d="M20.85 19.55h-2.527v2.591h2.527v-2.59Z"/>
    </g>
  </g>
  <path fill="currentColor" d="M180.123 21.873a4.097 4.097 0 0 1-1.939-.471 3.734 3.734 0 0 1-1.406-1.317c-.355-.576-.532-1.244-.532-2.004 0-.773.177-1.44.532-2.004a3.686 3.686 0 0 1 1.406-1.336 3.966 3.966 0 0 1 1.939-.491c.71 0 1.356.164 1.939.491.596.315 1.065.76 1.406 1.336.355.563.532 1.231.532 2.004 0 .76-.177 1.428-.532 2.004a3.54 3.54 0 0 1-1.406 1.317 4.018 4.018 0 0 1-1.939.471Zm0-.57c.596 0 1.136-.137 1.619-.412a3.038 3.038 0 0 0 1.172-1.14 3.31 3.31 0 0 0 .426-1.67c0-.628-.142-1.192-.426-1.69a2.997 2.997 0 0 0-1.172-1.159 3.1 3.1 0 0 0-1.619-.432 3.1 3.1 0 0 0-1.619.432 3.2 3.2 0 0 0-1.172 1.16 3.348 3.348 0 0 0-.426 1.69c0 .615.142 1.171.426 1.67a3.25 3.25 0 0 0 1.172 1.139 3.211 3.211 0 0 0 1.619.412Zm-1.449-1.277V15.98h1.47c.412 0 .788.085 1.129.255.341.17.512.505.512 1.002 0 .25-.086.479-.256.688a1.08 1.08 0 0 1-.597.413l1.044 1.69h-.788l-.831-1.494h-1.001v1.493h-.682Zm.682-2.023h.618c.326 0 .589-.06.788-.177.199-.118.298-.301.298-.55 0-.223-.078-.4-.234-.53-.142-.145-.405-.217-.788-.217h-.682v1.474Z"/>
  <defs>
    <clipPath id="a">
      <path fill="currentColor" d="M0 0h184v36H0z"/>
    </clipPath>
    <clipPath id="b">
      <path fill="currentColor" d="M.3-.23h178.969v37.46H.3z"/>
    </clipPath>
  </defs>
</svg>
