<svg version="1.1" id="Layer_1" xmlns="http://www.w3.org/2000/svg" xmlns:xlink="http://www.w3.org/1999/xlink" x="0px" y="0px"
	 width="100%" viewBox="0 0 200 200" enable-background="new 0 0 200 200" xml:space="preserve">
<path fill="#17459A" opacity="1.000000" stroke="none" 
	d="
M68.000000,201.000000 
	C45.695950,201.000000 23.391897,201.000000 1.043923,201.000000 
	C1.043923,134.450043 1.043923,67.900063 1.043923,1.000000 
	C23.019657,1.000000 45.041172,1.000000 67.554466,1.468193 
	C68.030830,68.290924 68.015419,134.645462 68.000000,201.000000 
M44.497597,150.778275 
	C37.349987,150.520203 30.202375,150.262131 22.884481,149.079956 
	C22.884481,142.486542 22.884481,135.893127 22.884481,129.280731 
	C18.872112,129.280731 15.500053,129.280731 11.675637,129.280731 
	C11.675637,148.045105 11.675637,166.477936 11.382931,185.107056 
	C11.508388,185.333176 11.633844,185.559311 12.494562,186.209000 
	C15.785128,186.209000 19.075693,186.209000 22.954966,186.209000 
	C22.954966,177.657913 22.954966,169.451553 22.954966,161.359406 
	C30.932550,161.359406 38.311790,161.359406 46.090828,161.359406 
	C46.090828,169.804001 46.090828,177.889297 46.090828,185.883469 
	C49.882088,185.883469 53.243885,185.883469 56.536247,185.883469 
	C56.536247,166.742386 56.536247,148.027695 56.536247,129.344940 
	C52.851070,129.344940 49.480537,129.344940 45.940300,129.344940 
	C45.940300,131.563278 46.006916,133.388123 45.927765,135.206635 
	C45.693218,140.595459 45.401176,145.981796 44.497597,150.778275 
z"/>
<path fill="#65B0E2" opacity="1.000000" stroke="none" 
	d="
M68.468658,201.000000 
	C68.015419,134.645462 68.030830,68.290924 68.023125,1.468193 
	C90.020897,1.000000 112.041786,1.000000 134.462006,1.464478 
	C134.841507,64.131790 134.817841,126.334625 134.810577,188.537460 
	C134.810089,192.691635 134.933960,196.845825 135.000000,201.000000 
	C112.979103,201.000000 90.958214,201.000000 68.468658,201.000000 
M120.899773,159.256485 
	C128.118759,146.728531 123.004128,132.189468 109.565308,129.780212 
	C101.433723,128.322433 92.827583,129.511780 84.305389,129.511780 
	C84.305389,148.376190 84.305389,167.058533 84.305389,185.928314 
	C85.968575,186.057877 87.284882,186.069931 88.569908,186.276535 
	C93.533890,187.074677 95.551994,185.261520 94.947083,180.052521 
	C94.496834,176.175293 94.858391,172.203781 94.858391,167.826385 
	C104.692482,167.846252 114.117455,168.384155 120.899773,159.256485 
z"/>
<path fill="#10AF55" opacity="1.000000" stroke="none" 
	d="
M135.468658,201.000000 
	C134.933960,196.845825 134.810089,192.691635 134.810577,188.537460 
	C134.817841,126.334625 134.841507,64.131790 134.930664,1.464478 
	C156.970978,1.000000 178.941940,1.000000 200.956451,1.000000 
	C200.956451,67.549652 200.956451,134.099350 200.956451,201.000000 
	C179.313705,201.000000 157.625504,201.000000 135.468658,201.000000 
M144.245010,170.703842 
	C141.896164,175.759842 139.547333,180.815826 137.162659,185.948959 
	C146.432343,188.070389 149.171478,186.967697 152.574951,179.096695 
	C153.966721,175.878036 155.661575,174.576645 159.230576,174.810822 
	C164.369781,175.148056 169.601746,175.364395 174.694824,174.774734 
	C180.624023,174.088272 183.946228,176.072784 185.679504,181.795715 
	C186.246262,183.667023 188.231567,186.091110 189.927795,186.422745 
	C192.971283,187.017746 196.287048,186.220047 199.777023,185.984940 
	C191.208496,167.800522 182.856079,150.231232 174.686646,132.577255 
	C173.384735,129.763840 171.838196,128.690933 168.691620,128.749237 
	C165.558914,128.807281 163.591370,129.376343 162.157471,132.551376 
	C156.477890,145.127457 150.487534,157.563156 144.245010,170.703842 
z"/>
<path fill="#FAFBFD" opacity="1.000000" stroke="none" 
	d="
M11.675637,184.910751 
	C11.675637,166.477936 11.675637,148.045105 11.675637,129.280731 
	C15.500053,129.280731 18.872112,129.280731 22.884481,129.280731 
	C22.884481,135.893127 22.884481,142.486542 22.959908,149.962799 
	C30.400761,151.020111 37.766186,151.194611 45.131615,151.369110 
	C45.401176,145.981796 45.693218,140.595459 45.927765,135.206635 
	C46.006916,133.388123 45.940300,131.563278 45.940300,129.344940 
	C49.480537,129.344940 52.851070,129.344940 56.536247,129.344940 
	C56.536247,148.027695 56.536247,166.742386 56.536247,185.883469 
	C53.243885,185.883469 49.882088,185.883469 46.090828,185.883469 
	C46.090828,177.889297 46.090828,169.804001 46.090828,161.359406 
	C38.311790,161.359406 30.932550,161.359406 22.954966,161.359406 
	C22.954966,169.451553 22.954966,177.657913 22.954966,186.209000 
	C19.075693,186.209000 15.785128,186.209000 12.158687,185.773499 
	C11.822811,185.338013 11.675637,184.910751 11.675637,184.910751 
z"/>
<path fill="#0A3A95" opacity="1.000000" stroke="none" 
	d="
M44.814606,151.073700 
	C37.766186,151.194611 30.400761,151.020111 23.045050,150.424850 
	C30.202375,150.262131 37.349987,150.520203 44.814606,151.073700 
z"/>
<path fill="#0D3D96" opacity="1.000000" stroke="none" 
	d="
M11.529284,185.008911 
	C11.675637,184.910751 11.822811,185.338013 11.791056,185.561722 
	C11.633844,185.559311 11.508388,185.333176 11.529284,185.008911 
z"/>
<path fill="#FBFDFE" opacity="1.000000" stroke="none" 
	d="
M120.677444,159.548828 
	C114.117455,168.384155 104.692482,167.846252 94.858391,167.826385 
	C94.858391,172.203781 94.496834,176.175293 94.947083,180.052521 
	C95.551994,185.261520 93.533890,187.074677 88.569908,186.276535 
	C87.284882,186.069931 85.968575,186.057877 84.305389,185.928314 
	C84.305389,167.058533 84.305389,148.376190 84.305389,129.511780 
	C92.827583,129.511780 101.433723,128.322433 109.565308,129.780212 
	C123.004128,132.189468 128.118759,146.728531 120.677444,159.548828 
M105.500282,158.531281 
	C112.239891,155.318237 114.916206,149.987610 112.677269,144.236298 
	C110.390961,138.363327 103.362724,135.902588 95.322525,138.127518 
	C95.322525,144.999039 95.322525,151.846710 95.322525,158.753784 
	C98.759575,158.753784 101.724960,158.753784 105.500282,158.531281 
z"/>
<path fill="#F8FDFA" opacity="1.000000" stroke="none" 
	d="
M144.428696,170.377380 
	C150.487534,157.563156 156.477890,145.127457 162.157471,132.551376 
	C163.591370,129.376343 165.558914,128.807281 168.691620,128.749237 
	C171.838196,128.690933 173.384735,129.763840 174.686646,132.577255 
	C182.856079,150.231232 191.208496,167.800522 199.777023,185.984940 
	C196.287048,186.220047 192.971283,187.017746 189.927795,186.422745 
	C188.231567,186.091110 186.246262,183.667023 185.679504,181.795715 
	C183.946228,176.072784 180.624023,174.088272 174.694824,174.774734 
	C169.601746,175.364395 164.369781,175.148056 159.230576,174.810822 
	C155.661575,174.576645 153.966721,175.878036 152.574951,179.096695 
	C149.171478,186.967697 146.432343,188.070389 137.162659,185.948959 
	C139.547333,180.815826 141.896164,175.759842 144.428696,170.377380 
M162.773865,157.311661 
	C161.716980,159.760376 160.660110,162.209091 159.382446,165.169312 
	C165.946426,165.169312 171.379715,165.169312 177.715347,165.169312 
	C174.586838,158.372360 171.708160,152.118210 168.512863,145.176147 
	C166.478760,149.439255 164.770599,153.019272 162.773865,157.311661 
z"/>
<path fill="#67B1E2" opacity="1.000000" stroke="none" 
	d="
M105.095314,158.642532 
	C101.724960,158.753784 98.759575,158.753784 95.322525,158.753784 
	C95.322525,151.846710 95.322525,144.999039 95.322525,138.127518 
	C103.362724,135.902588 110.390961,138.363327 112.677269,144.236298 
	C114.916206,149.987610 112.239891,155.318237 105.095314,158.642532 
z"/>
<path fill="#15B159" opacity="1.000000" stroke="none" 
	d="
M162.918152,156.955475 
	C164.770599,153.019272 166.478760,149.439255 168.512863,145.176147 
	C171.708160,152.118210 174.586838,158.372360 177.715347,165.169312 
	C171.379715,165.169312 165.946426,165.169312 159.382446,165.169312 
	C160.660110,162.209091 161.716980,159.760376 162.918152,156.955475 
z"/>
</svg>